<?xml version="1.0" encoding="UTF-8" standalone="no"?>
<!DOCTYPE svg PUBLIC "-//W3C//DTD SVG 1.1//EN"
 "http://www.w3.org/Graphics/SVG/1.1/DTD/svg11.dtd">
<!-- Generated by graphviz version 2.43.0 (0)
 -->
<!-- Title: Entity Relationship Diagram Pages: 1 -->
<svg width="1161pt" height="482pt"
 viewBox="0.00 0.00 1161.00 482.00" xmlns="http://www.w3.org/2000/svg" xmlns:xlink="http://www.w3.org/1999/xlink">
<g id="graph0" class="graph" transform="scale(1 1) rotate(0) translate(4 478)">
<title>Entity Relationship Diagram</title>
<polygon fill="white" stroke="transparent" points="-4,4 -4,-478 1157,-478 1157,4 -4,4"/>
<text text-anchor="middle" x="576.5" y="-6.8" font-family="Times,serif" font-size="9.00" fill="#a8a8a8">Created by erdantic v0.7.0 &lt;https://github.com/drivendataorg/erdantic&gt;</text>
<!-- aind_data_schema.core.processing.AnalysisProcess -->
<g id="node1" class="node">
<title>aind_data_schema.core.processing.AnalysisProcess</title>
<g id="a_node1"><a xlink:title="aind_data_schema.core.processing.AnalysisProcess&#10;&#10;Description of an Analysis&#10;&#10;Attributes:&#10; &#160;&#160;&#160;software_version (str): Version of the software used&#10; &#160;&#160;&#160;input_location (str): Path to data inputs&#10; &#160;&#160;&#160;output_location (str): Path to data outputs&#10; &#160;&#160;&#160;code_url (str): Path to code repository&#10; &#160;&#160;&#160;code_version (Optional[str]): Version of the code. Default is None.&#10; &#160;&#160;&#160;outputs (AindGenericType): Output parameters. Default is .&#10; &#160;&#160;&#160;analyst_full_name (str): Name of person responsible for running analysis&#10;">
<polygon fill="none" stroke="black" points="415,-291 415,-312 733,-312 733,-291 415,-291"/>
<text text-anchor="start" x="510.5" y="-298.8" font-family="Times,serif" font-weight="bold" font-size="14.00">AnalysisProcess</text>
<polygon fill="none" stroke="black" points="415,-270 415,-291 549,-291 549,-270 415,-270"/>
<text text-anchor="start" x="462" y="-276.8" font-family="Times,serif" font-size="14.00">name</text>
<polygon fill="none" stroke="black" points="549,-270 549,-291 733,-291 733,-270 549,-270"/>
<text text-anchor="start" x="552" y="-276.8" font-family="Times,serif" font-size="14.00">ProcessName(str, Enum)</text>
<polygon fill="none" stroke="black" points="415,-249 415,-270 549,-270 549,-249 415,-249"/>
<text text-anchor="start" x="421" y="-255.8" font-family="Times,serif" font-size="14.00">software_version</text>
<polygon fill="none" stroke="black" points="549,-249 549,-270 733,-270 733,-249 549,-249"/>
<text text-anchor="start" x="630.5" y="-255.8" font-family="Times,serif" font-size="14.00">str</text>
<polygon fill="none" stroke="black" points="415,-228 415,-249 549,-249 549,-228 415,-228"/>
<text text-anchor="start" x="426" y="-234.8" font-family="Times,serif" font-size="14.00">start_date_time</text>
<polygon fill="none" stroke="black" points="549,-228 549,-249 733,-249 733,-228 549,-228"/>
<text text-anchor="start" x="609" y="-234.8" font-family="Times,serif" font-size="14.00">datetime</text>
<polygon fill="none" stroke="black" points="415,-207 415,-228 549,-228 549,-207 415,-207"/>
<text text-anchor="start" x="430" y="-213.8" font-family="Times,serif" font-size="14.00">end_date_time</text>
<polygon fill="none" stroke="black" points="549,-207 549,-228 733,-228 733,-207 549,-207"/>
<text text-anchor="start" x="609" y="-213.8" font-family="Times,serif" font-size="14.00">datetime</text>
<polygon fill="none" stroke="black" points="415,-186 415,-207 549,-207 549,-186 415,-186"/>
<text text-anchor="start" x="431.5" y="-192.8" font-family="Times,serif" font-size="14.00">input_location</text>
<polygon fill="none" stroke="black" points="549,-186 549,-207 733,-207 733,-186 549,-186"/>
<text text-anchor="start" x="630.5" y="-192.8" font-family="Times,serif" font-size="14.00">str</text>
<polygon fill="none" stroke="black" points="415,-165 415,-186 549,-186 549,-165 415,-165"/>
<text text-anchor="start" x="426.5" y="-171.8" font-family="Times,serif" font-size="14.00">output_location</text>
<polygon fill="none" stroke="black" points="549,-165 549,-186 733,-186 733,-165 549,-165"/>
<text text-anchor="start" x="630.5" y="-171.8" font-family="Times,serif" font-size="14.00">str</text>
<polygon fill="none" stroke="black" points="415,-144 415,-165 549,-165 549,-144 415,-144"/>
<text text-anchor="start" x="451.5" y="-150.8" font-family="Times,serif" font-size="14.00">code_url</text>
<polygon fill="none" stroke="black" points="549,-144 549,-165 733,-165 733,-144 549,-144"/>
<text text-anchor="start" x="630.5" y="-150.8" font-family="Times,serif" font-size="14.00">str</text>
<polygon fill="none" stroke="black" points="415,-123 415,-144 549,-144 549,-123 415,-123"/>
<text text-anchor="start" x="435.5" y="-129.8" font-family="Times,serif" font-size="14.00">code_version</text>
<polygon fill="none" stroke="black" points="549,-123 549,-144 733,-144 733,-123 549,-123"/>
<text text-anchor="start" x="595" y="-129.8" font-family="Times,serif" font-size="14.00">Optional[str]</text>
<polygon fill="none" stroke="black" points="415,-102 415,-123 549,-123 549,-102 415,-102"/>
<text text-anchor="start" x="440.5" y="-108.8" font-family="Times,serif" font-size="14.00">parameters</text>
<polygon fill="none" stroke="black" points="549,-102 549,-123 733,-123 733,-102 549,-102"/>
<text text-anchor="start" x="579.5" y="-108.8" font-family="Times,serif" font-size="14.00">AindGenericType</text>
<polygon fill="none" stroke="black" points="415,-81 415,-102 549,-102 549,-81 415,-81"/>
<text text-anchor="start" x="454.5" y="-87.8" font-family="Times,serif" font-size="14.00">outputs</text>
<polygon fill="none" stroke="black" points="549,-81 549,-102 733,-102 733,-81 549,-81"/>
<text text-anchor="start" x="579.5" y="-87.8" font-family="Times,serif" font-size="14.00">AindGenericType</text>
<polygon fill="none" stroke="black" points="415,-60 415,-81 549,-81 549,-60 415,-60"/>
<text text-anchor="start" x="462" y="-66.8" font-family="Times,serif" font-size="14.00">notes</text>
<polygon fill="none" stroke="black" points="549,-60 549,-81 733,-81 733,-60 549,-60"/>
<text text-anchor="start" x="595" y="-66.8" font-family="Times,serif" font-size="14.00">Optional[str]</text>
<polygon fill="none" stroke="black" points="415,-39 415,-60 549,-60 549,-39 415,-39"/>
<text text-anchor="start" x="418" y="-45.8" font-family="Times,serif" font-size="14.00">analyst_full_name</text>
<polygon fill="none" stroke="black" points="549,-39 549,-60 733,-60 733,-39 549,-39"/>
<text text-anchor="start" x="630.5" y="-45.8" font-family="Times,serif" font-size="14.00">str</text>
<polygon fill="none" stroke="black" points="415,-18 415,-39 549,-39 549,-18 415,-18"/>
<text text-anchor="start" x="441.5" y="-24.8" font-family="Times,serif" font-size="14.00">description</text>
<polygon fill="none" stroke="black" points="549,-18 549,-39 733,-39 733,-18 549,-18"/>
<text text-anchor="start" x="630.5" y="-24.8" font-family="Times,serif" font-size="14.00">str</text>
</a>
</g>
</g>
<!-- aind_data_schema.core.processing.DataProcess -->
<g id="node2" class="node">
<title>aind_data_schema.core.processing.DataProcess</title>
<g id="a_node2"><a xlink:title="aind_data_schema.core.processing.DataProcess&#10;&#10;Description of a single processing step&#10;&#10;Attributes:&#10; &#160;&#160;&#160;software_version (str): Version of the software used&#10; &#160;&#160;&#160;input_location (str): Path to data inputs&#10; &#160;&#160;&#160;output_location (str): Path to data outputs&#10; &#160;&#160;&#160;code_url (str): Path to code repository&#10; &#160;&#160;&#160;code_version (Optional[str]): Version of the code. Default is None.&#10; &#160;&#160;&#160;outputs (AindGenericType): Output parameters. Default is .&#10;">
<polygon fill="none" stroke="black" points="841,-432 841,-453 1153,-453 1153,-432 841,-432"/>
<text text-anchor="start" x="948" y="-439.8" font-family="Times,serif" font-weight="bold" font-size="14.00">DataProcess</text>
<polygon fill="none" stroke="black" points="841,-411 841,-432 969,-432 969,-411 841,-411"/>
<text text-anchor="start" x="885" y="-417.8" font-family="Times,serif" font-size="14.00">name</text>
<polygon fill="none" stroke="black" points="969,-411 969,-432 1153,-432 1153,-411 969,-411"/>
<text text-anchor="start" x="972" y="-417.8" font-family="Times,serif" font-size="14.00">ProcessName(str, Enum)</text>
<polygon fill="none" stroke="black" points="841,-390 841,-411 969,-411 969,-390 841,-390"/>
<text text-anchor="start" x="844" y="-396.8" font-family="Times,serif" font-size="14.00">software_version</text>
<polygon fill="none" stroke="black" points="969,-390 969,-411 1153,-411 1153,-390 969,-390"/>
<text text-anchor="start" x="1050.5" y="-396.8" font-family="Times,serif" font-size="14.00">str</text>
<polygon fill="none" stroke="black" points="841,-369 841,-390 969,-390 969,-369 841,-369"/>
<text text-anchor="start" x="849" y="-375.8" font-family="Times,serif" font-size="14.00">start_date_time</text>
<polygon fill="none" stroke="black" points="969,-369 969,-390 1153,-390 1153,-369 969,-369"/>
<text text-anchor="start" x="1029" y="-375.8" font-family="Times,serif" font-size="14.00">datetime</text>
<polygon fill="none" stroke="black" points="841,-348 841,-369 969,-369 969,-348 841,-348"/>
<text text-anchor="start" x="853" y="-354.8" font-family="Times,serif" font-size="14.00">end_date_time</text>
<polygon fill="none" stroke="black" points="969,-348 969,-369 1153,-369 1153,-348 969,-348"/>
<text text-anchor="start" x="1029" y="-354.8" font-family="Times,serif" font-size="14.00">datetime</text>
<polygon fill="none" stroke="black" points="841,-327 841,-348 969,-348 969,-327 841,-327"/>
<text text-anchor="start" x="854.5" y="-333.8" font-family="Times,serif" font-size="14.00">input_location</text>
<polygon fill="none" stroke="black" points="969,-327 969,-348 1153,-348 1153,-327 969,-327"/>
<text text-anchor="start" x="1050.5" y="-333.8" font-family="Times,serif" font-size="14.00">str</text>
<polygon fill="none" stroke="black" points="841,-306 841,-327 969,-327 969,-306 841,-306"/>
<text text-anchor="start" x="849.5" y="-312.8" font-family="Times,serif" font-size="14.00">output_location</text>
<polygon fill="none" stroke="black" points="969,-306 969,-327 1153,-327 1153,-306 969,-306"/>
<text text-anchor="start" x="1050.5" y="-312.8" font-family="Times,serif" font-size="14.00">str</text>
<polygon fill="none" stroke="black" points="841,-285 841,-306 969,-306 969,-285 841,-285"/>
<text text-anchor="start" x="874.5" y="-291.8" font-family="Times,serif" font-size="14.00">code_url</text>
<polygon fill="none" stroke="black" points="969,-285 969,-306 1153,-306 1153,-285 969,-285"/>
<text text-anchor="start" x="1050.5" y="-291.8" font-family="Times,serif" font-size="14.00">str</text>
<polygon fill="none" stroke="black" points="841,-264 841,-285 969,-285 969,-264 841,-264"/>
<text text-anchor="start" x="858.5" y="-270.8" font-family="Times,serif" font-size="14.00">code_version</text>
<polygon fill="none" stroke="black" points="969,-264 969,-285 1153,-285 1153,-264 969,-264"/>
<text text-anchor="start" x="1015" y="-270.8" font-family="Times,serif" font-size="14.00">Optional[str]</text>
<polygon fill="none" stroke="black" points="841,-243 841,-264 969,-264 969,-243 841,-243"/>
<text text-anchor="start" x="863.5" y="-249.8" font-family="Times,serif" font-size="14.00">parameters</text>
<polygon fill="none" stroke="black" points="969,-243 969,-264 1153,-264 1153,-243 969,-243"/>
<text text-anchor="start" x="999.5" y="-249.8" font-family="Times,serif" font-size="14.00">AindGenericType</text>
<polygon fill="none" stroke="black" points="841,-222 841,-243 969,-243 969,-222 841,-222"/>
<text text-anchor="start" x="877.5" y="-228.8" font-family="Times,serif" font-size="14.00">outputs</text>
<polygon fill="none" stroke="black" points="969,-222 969,-243 1153,-243 1153,-222 969,-222"/>
<text text-anchor="start" x="999.5" y="-228.8" font-family="Times,serif" font-size="14.00">AindGenericType</text>
<polygon fill="none" stroke="black" points="841,-201 841,-222 969,-222 969,-201 841,-201"/>
<text text-anchor="start" x="885" y="-207.8" font-family="Times,serif" font-size="14.00">notes</text>
<polygon fill="none" stroke="black" points="969,-201 969,-222 1153,-222 1153,-201 969,-201"/>
<text text-anchor="start" x="1015" y="-207.8" font-family="Times,serif" font-size="14.00">Optional[str]</text>
</a>
</g>
</g>
<!-- aind_data_schema.core.processing.PipelineProcess -->
<g id="node3" class="node">
<title>aind_data_schema.core.processing.PipelineProcess</title>
<g id="a_node3"><a xlink:title="aind_data_schema.core.processing.PipelineProcess&#10;&#10;Description of a Processing Pipeline&#10;&#10;Attributes:&#10; &#160;&#160;&#160;processor_full_name (str): Name of person responsible for processing pipeline&#10; &#160;&#160;&#160;pipeline_version (Optional[str]): Version of the pipeline. Default is None.&#10; &#160;&#160;&#160;pipeline_url (Optional[str]): URL to the pipeline code. Default is None.&#10;">
<polygon fill="none" stroke="black" points="432,-453 432,-474 717,-474 717,-453 432,-453"/>
<text text-anchor="start" x="511.5" y="-460.8" font-family="Times,serif" font-weight="bold" font-size="14.00">PipelineProcess</text>
<polygon fill="none" stroke="black" points="432,-432 432,-453 584,-453 584,-432 432,-432"/>
<text text-anchor="start" x="453.5" y="-438.8" font-family="Times,serif" font-size="14.00">data_processes</text>
<polygon fill="none" stroke="black" points="584,-432 584,-453 717,-453 717,-432 584,-432"/>
<text text-anchor="start" x="587" y="-438.8" font-family="Times,serif" font-size="14.00">List[DataProcess]</text>
<polygon fill="none" stroke="black" points="432,-411 432,-432 584,-432 584,-411 432,-411"/>
<text text-anchor="start" x="435" y="-417.8" font-family="Times,serif" font-size="14.00">processor_full_name</text>
<polygon fill="none" stroke="black" points="584,-411 584,-432 717,-432 717,-411 584,-411"/>
<text text-anchor="start" x="640" y="-417.8" font-family="Times,serif" font-size="14.00">str</text>
<polygon fill="none" stroke="black" points="432,-390 432,-411 584,-411 584,-390 432,-390"/>
<text text-anchor="start" x="449.5" y="-396.8" font-family="Times,serif" font-size="14.00">pipeline_version</text>
<polygon fill="none" stroke="black" points="584,-390 584,-411 717,-411 717,-390 584,-390"/>
<text text-anchor="start" x="604.5" y="-396.8" font-family="Times,serif" font-size="14.00">Optional[str]</text>
<polygon fill="none" stroke="black" points="432,-369 432,-390 584,-390 584,-369 432,-369"/>
<text text-anchor="start" x="465.5" y="-375.8" font-family="Times,serif" font-size="14.00">pipeline_url</text>
<polygon fill="none" stroke="black" points="584,-369 584,-390 717,-390 717,-369 584,-369"/>
<text text-anchor="start" x="604.5" y="-375.8" font-family="Times,serif" font-size="14.00">Optional[str]</text>
<polygon fill="none" stroke="black" points="432,-348 432,-369 584,-369 584,-348 432,-348"/>
<text text-anchor="start" x="492" y="-354.8" font-family="Times,serif" font-size="14.00">note</text>
<polygon fill="none" stroke="black" points="584,-348 584,-369 717,-369 717,-348 584,-348"/>
<text text-anchor="start" x="604.5" y="-354.8" font-family="Times,serif" font-size="14.00">Optional[str]</text>
</a>
</g>
</g>
<!-- aind_data_schema.core.processing.PipelineProcess&#45;&gt;aind_data_schema.core.processing.DataProcess -->
<g id="edge1" class="edge">
<title>aind_data_schema.core.processing.PipelineProcess:e&#45;&gt;aind_data_schema.core.processing.DataProcess:w</title>
<path fill="none" stroke="black" d="M718,-443C766.05,-443 782.42,-443 822.8,-443"/>
<polygon fill="black" stroke="black" points="831,-443 841,-447.5 836,-443 841,-443 841,-443 841,-443 836,-443 841,-438.5 831,-443 831,-443"/>
<ellipse fill="none" stroke="black" cx="827" cy="-443" rx="4" ry="4"/>
</g>
<!-- aind_data_schema.core.processing.Processing -->
<g id="node4" class="node">
<title>aind_data_schema.core.processing.Processing</title>
<g id="a_node4"><a xlink:title="aind_data_schema.core.processing.Processing&#10;&#10;Description of all processes run on data&#10;&#10;Attributes:&#10; &#160;&#160;&#160;processing_pipeline (PipelineProcess): Pipeline used to process data&#10; &#160;&#160;&#160;analyses (List[AnalysisProcess]): Analysis steps taken after processing. Default is [].&#10;">
<polygon fill="none" stroke="black" points="0.5,-446 0.5,-467 307.5,-467 307.5,-446 0.5,-446"/>
<text text-anchor="start" x="110.5" y="-453.8" font-family="Times,serif" font-weight="bold" font-size="14.00">Processing</text>
<polygon fill="none" stroke="black" points="0.5,-425 0.5,-446 148.5,-446 148.5,-425 0.5,-425"/>
<text text-anchor="start" x="30" y="-431.8" font-family="Times,serif" font-size="14.00">describedBy</text>
<polygon fill="none" stroke="black" points="148.5,-425 148.5,-446 307.5,-446 307.5,-425 148.5,-425"/>
<text text-anchor="start" x="217.5" y="-431.8" font-family="Times,serif" font-size="14.00">str</text>
<polygon fill="none" stroke="black" points="0.5,-404 0.5,-425 148.5,-425 148.5,-404 0.5,-404"/>
<text text-anchor="start" x="17.5" y="-410.8" font-family="Times,serif" font-size="14.00">schema_version</text>
<polygon fill="none" stroke="black" points="148.5,-404 148.5,-425 307.5,-425 307.5,-404 148.5,-404"/>
<text text-anchor="start" x="177" y="-410.8" font-family="Times,serif" font-size="14.00">Literal[&#39;0.4.5&#39;]</text>
<polygon fill="none" stroke="black" points="0.5,-383 0.5,-404 148.5,-404 148.5,-383 0.5,-383"/>
<text text-anchor="start" x="3.5" y="-389.8" font-family="Times,serif" font-size="14.00">processing_pipeline</text>
<polygon fill="none" stroke="black" points="148.5,-383 148.5,-404 307.5,-404 307.5,-383 148.5,-383"/>
<text text-anchor="start" x="171" y="-389.8" font-family="Times,serif" font-size="14.00">PipelineProcess</text>
<polygon fill="none" stroke="black" points="0.5,-362 0.5,-383 148.5,-383 148.5,-362 0.5,-362"/>
<text text-anchor="start" x="43.5" y="-368.8" font-family="Times,serif" font-size="14.00">analyses</text>
<polygon fill="none" stroke="black" points="148.5,-362 148.5,-383 307.5,-383 307.5,-362 148.5,-362"/>
<text text-anchor="start" x="151.5" y="-368.8" font-family="Times,serif" font-size="14.00">List[AnalysisProcess]</text>
<polygon fill="none" stroke="black" points="0.5,-341 0.5,-362 148.5,-362 148.5,-341 0.5,-341"/>
<text text-anchor="start" x="54.5" y="-347.8" font-family="Times,serif" font-size="14.00">notes</text>
<polygon fill="none" stroke="black" points="148.5,-341 148.5,-362 307.5,-362 307.5,-341 148.5,-341"/>
<text text-anchor="start" x="182" y="-347.8" font-family="Times,serif" font-size="14.00">Optional[str]</text>
</a>
</g>
</g>
<!-- aind_data_schema.core.processing.Processing&#45;&gt;aind_data_schema.core.processing.AnalysisProcess -->
<g id="edge2" class="edge">
<title>aind_data_schema.core.processing.Processing:e&#45;&gt;aind_data_schema.core.processing.AnalysisProcess:w</title>
<path fill="none" stroke="black" d="M307,-372C357.39,-372 358.42,-317.69 397.05,-304.74"/>
<polygon fill="black" stroke="black" points="405.11,-303.51 415.68,-306.45 410.06,-302.76 415,-302 415,-302 415,-302 410.06,-302.76 414.32,-297.55 405.11,-303.51 405.11,-303.51"/>
<ellipse fill="none" stroke="black" cx="401.16" cy="-304.12" rx="4" ry="4"/>
</g>
<!-- aind_data_schema.core.processing.Processing&#45;&gt;aind_data_schema.core.processing.PipelineProcess -->
<g id="edge3" class="edge">
<title>aind_data_schema.core.processing.Processing:e&#45;&gt;aind_data_schema.core.processing.PipelineProcess:w</title>
<path fill="none" stroke="black" d="M307,-393C365.05,-393 367.52,-452.32 416.02,-462.52"/>
<polyline fill="none" stroke="black" points="431,-464 426.02,-463.51 "/>
<polygon fill="black" stroke="black" points="425.52,-458.43 424.54,-468.38 422.55,-468.19 423.53,-458.24 425.52,-458.43"/>
<polyline fill="none" stroke="black" points="426.02,-463.51 421.05,-463.02 "/>
<polygon fill="black" stroke="black" points="420.55,-457.94 419.56,-467.89 417.57,-467.7 418.56,-457.74 420.55,-457.94"/>
<polyline fill="none" stroke="black" points="421.05,-463.02 416.07,-462.52 "/>
</g>
</g>
</svg>
